<?xml version="1.0" standalone="no"?>
<!DOCTYPE svg PUBLIC "-//W3C//DTD SVG 20010904//EN"
 "http://www.w3.org/TR/2001/REC-SVG-20010904/DTD/svg10.dtd">
<svg version="1.0" xmlns="http://www.w3.org/2000/svg"
 width="800.000000pt" height="800.000000pt" viewBox="0 0 800.000000 800.000000"
 preserveAspectRatio="xMidYMid meet">
<metadata>
Created by potrace 1.14, written by Peter Selinger 2001-2017
</metadata>
<g transform="translate(0.000000,800.000000) scale(0.100000,-0.100000)"
fill="#000000" stroke="none">
<path d="M4425 7884 c-79 -25 -149 -82 -192 -155 -19 -34 -37 -89 -33 -105 5
-22 -67 -26 -160 -8 -14 2 -63 6 -110 9 -47 3 -96 7 -110 10 -33 5 -147 17
-185 20 -42 3 -184 16 -220 20 -43 5 -208 21 -310 31 -33 3 -78 7 -100 10 -22
2 -67 6 -100 9 -33 3 -81 7 -106 10 -33 4 -46 2 -46 -7 -1 -7 -4 -44 -8 -83
-4 -38 -8 -86 -10 -105 -2 -19 -6 -64 -10 -100 -25 -257 -26 -254 5 -258 14
-1 38 -2 53 -3 l28 0 -6 -72 c-9 -85 -10 -103 -19 -182 -8 -70 -12 -115 -20
-205 -4 -36 -9 -85 -11 -110 -3 -25 -7 -67 -9 -95 -4 -46 -11 -120 -21 -221
-3 -21 -7 -61 -9 -89 -3 -27 -8 -72 -10 -100 -10 -96 -15 -143 -31 -322 -3
-32 -8 -73 -10 -91 -3 -18 -8 -66 -11 -105 -3 -40 -7 -85 -9 -102 -2 -16 -6
-59 -9 -95 -4 -36 -8 -85 -11 -110 -3 -25 -7 -72 -10 -105 -3 -33 -8 -80 -11
-104 -3 -24 -7 -67 -9 -95 -7 -73 -22 -233 -30 -306 -3 -25 -7 -72 -10 -105
-3 -33 -7 -78 -10 -100 -2 -22 -7 -69 -10 -105 -3 -36 -8 -83 -10 -105 -3 -22
-7 -65 -10 -95 -2 -30 -7 -75 -10 -100 -3 -25 -8 -76 -11 -115 -3 -38 -7 -81
-9 -95 -4 -23 -12 -108 -20 -215 -2 -22 -4 -40 -5 -40 -1 0 -3 -18 -5 -40 -4
-59 -21 -235 -31 -320 -6 -51 -11 -105 -19 -205 -2 -30 -7 -79 -10 -107 -4
-29 -3 -53 2 -54 34 -3 1044 -1 1047 2 13 18 56 104 56 114 0 8 3 15 8 17 9 4
72 130 72 145 0 6 3 13 8 15 9 4 232 452 232 467 0 6 4 11 8 11 7 0 31 52 30
67 0 3 4 9 9 12 9 7 53 92 53 103 0 4 14 30 30 58 17 28 30 57 30 65 0 8 4 15
8 15 7 0 31 52 30 67 0 3 4 9 9 12 9 7 53 92 53 104 0 4 11 25 25 47 14 22 22
40 18 40 -5 0 -3 4 2 8 6 4 52 91 103 195 51 103 95 187 98 187 2 0 2 -12 -1
-27 -3 -16 -8 -44 -11 -63 -3 -19 -7 -46 -10 -60 -2 -14 -7 -41 -9 -60 -5 -34
-16 -95 -20 -115 -3 -12 -13 -72 -21 -122 -3 -21 -7 -45 -9 -53 -3 -8 -7 -35
-10 -60 -3 -25 -10 -67 -15 -95 -5 -27 -12 -66 -14 -85 -3 -19 -8 -47 -11 -62
-3 -16 -7 -40 -10 -55 -3 -16 -8 -47 -11 -69 -2 -23 -7 -53 -10 -65 -3 -13 -7
-40 -9 -59 -3 -19 -7 -46 -10 -58 -3 -13 -8 -43 -11 -65 -3 -23 -10 -60 -15
-82 -5 -22 -9 -43 -9 -46 0 -4 124 -7 276 -7 151 0 276 -2 278 -3 1 -2 -21
-88 -49 -191 -28 -103 -49 -192 -46 -196 6 -9 42 -16 136 -27 22 -3 56 -8 75
-11 44 -7 95 -14 140 -19 19 -2 46 -6 60 -9 37 -6 110 -17 150 -22 19 -2 51
-7 70 -10 19 -3 51 -8 70 -10 19 -3 46 -7 60 -9 14 -3 50 -7 79 -10 30 -4 58
-8 61 -10 3 -2 34 -6 69 -10 34 -4 72 -8 84 -11 53 -11 96 -14 100 -7 3 5 8
37 11 73 4 36 9 88 11 115 13 120 16 153 19 195 5 58 16 165 21 210 2 19 7 68
10 108 4 41 8 83 11 95 2 12 6 55 9 96 3 41 7 93 10 115 3 23 7 67 10 99 2 32
7 77 10 100 3 23 8 69 10 102 2 33 4 60 5 60 1 0 3 20 5 45 2 25 7 65 9 90 3
25 8 77 11 115 4 39 8 86 11 105 2 19 6 62 9 95 3 33 7 78 10 100 2 22 7 69
10 105 3 36 8 81 10 100 6 45 23 230 29 305 5 54 17 173 22 210 2 17 6 57 9
90 3 33 8 80 10 105 3 25 7 72 10 105 3 33 7 80 10 105 15 138 21 198 30 305
2 28 6 73 10 100 3 28 7 71 8 97 1 27 4 48 7 48 3 0 5 21 6 48 1 44 6 99 21
232 4 30 7 72 7 92 1 21 3 38 6 38 3 0 5 15 4 32 -2 56 3 61 62 54 53 -6 54
-5 55 22 0 15 2 35 4 45 3 18 13 116 20 202 2 22 7 69 11 105 4 36 8 90 8 120
1 55 1 55 -29 56 -17 0 -35 3 -40 6 -6 3 -30 6 -55 6 -25 1 -63 3 -85 6 -50 6
-146 16 -205 21 -73 6 -162 15 -205 20 -22 3 -71 8 -110 11 -38 3 -83 8 -100
9 -173 17 -243 24 -300 31 -39 4 -71 7 -220 20 -38 3 -72 7 -74 10 -2 2 -5 23
-7 46 -4 62 -12 93 -36 139 -38 73 -129 148 -202 166 -53 13 -144 12 -191 -3z
m-933 -1110 c26 -3 69 -7 95 -10 103 -8 170 -14 210 -19 23 -3 68 -8 100 -10
91 -8 156 -15 178 -19 11 -3 22 -5 25 -5 5 -1 4 -56 0 -56 -1 0 -3 -16 -5 -35
-1 -19 -5 -62 -9 -95 -10 -101 -16 -157 -21 -220 -2 -33 -7 -80 -10 -105 -3
-25 -8 -72 -11 -105 -3 -33 -7 -73 -9 -90 -1 -16 -6 -68 -10 -115 -4 -47 -9
-92 -11 -100 -1 -8 -3 -27 -3 -42 l-1 -28 -72 6 c-40 3 -83 7 -96 9 -13 2 -53
7 -90 10 -37 4 -87 8 -112 11 -25 2 -70 7 -100 9 -30 3 -73 7 -95 10 -22 2
-71 7 -110 10 -91 8 -104 12 -100 33 3 16 12 104 20 197 8 90 16 171 20 195 3
14 7 60 10 103 5 74 10 131 20 207 2 19 7 69 11 110 4 41 8 84 9 95 2 11 4 30
4 43 1 24 9 25 163 6z m1425 -139 c23 -2 68 -6 100 -9 32 -4 78 -8 103 -11 25
-2 72 -7 105 -10 33 -4 83 -9 110 -11 28 -2 75 -6 105 -10 30 -3 64 -6 75 -7
18 -2 20 -9 18 -67 -3 -80 -10 -165 -17 -207 -3 -17 -8 -62 -11 -100 -3 -37
-7 -84 -10 -103 -2 -19 -7 -66 -10 -105 -8 -100 -13 -153 -20 -210 -7 -61 -17
-175 -18 -193 0 -13 -45 -12 -182 5 -47 5 -81 9 -190 18 -44 4 -93 9 -110 11
-16 1 -61 6 -100 9 -38 3 -97 9 -130 13 l-60 7 2 35 c1 19 4 60 7 90 3 30 8
84 11 120 3 36 8 83 10 105 5 41 10 92 21 205 3 36 7 76 8 90 2 14 6 54 10 90
3 36 9 92 12 125 3 33 7 74 9 90 1 17 3 34 4 39 0 4 25 5 54 1 28 -4 71 -8 94
-10z m-1582 -1520 c28 -2 75 -7 105 -10 30 -3 78 -8 105 -11 28 -2 73 -7 100
-9 28 -3 68 -7 90 -10 40 -5 153 -14 188 -15 17 0 18 -7 12 -66 -3 -36 -8 -91
-10 -122 -3 -31 -7 -77 -10 -102 -3 -25 -7 -65 -9 -90 -5 -58 -16 -174 -22
-225 -2 -22 -6 -65 -9 -95 -3 -30 -7 -73 -10 -95 -2 -22 -7 -71 -11 -110 -4
-38 -7 -76 -7 -83 0 -9 -13 -11 -46 -7 -25 3 -73 8 -106 11 -33 3 -71 7 -85 8
-14 2 -61 6 -105 10 -44 4 -98 9 -120 12 -47 6 -114 12 -205 19 -111 8 -111 7
-105 68 3 28 7 68 10 87 2 19 7 64 10 100 7 76 14 138 20 200 3 25 7 74 11
110 14 155 24 260 30 315 3 28 7 64 9 80 1 17 3 34 4 38 1 8 31 6 166 -8z
m1435 -140 c70 -7 150 -15 205 -20 79 -7 167 -15 210 -21 22 -2 65 -7 95 -10
30 -2 64 -6 75 -7 22 -2 24 -27 11 -147 -4 -36 -9 -85 -11 -110 -3 -25 -7 -72
-10 -105 -4 -33 -8 -86 -10 -117 -2 -31 -7 -69 -9 -84 -3 -15 -8 -61 -11 -103
-3 -42 -8 -90 -11 -108 -5 -32 -16 -159 -17 -201 -1 -21 -4 -22 -56 -17 -31 4
-78 8 -106 10 -72 6 -142 13 -205 20 -30 4 -75 8 -100 11 -61 5 -156 14 -210
21 -25 3 -56 6 -70 7 -24 1 -25 3 -22 61 1 33 5 89 9 125 3 36 7 82 7 102 1
21 3 38 6 38 3 0 5 15 6 33 1 56 7 122 11 130 3 4 6 38 9 75 4 62 12 151 18
212 2 14 6 61 11 105 6 68 10 93 14 113 1 4 50 0 161 -13z"/>
<path d="M4465 2568 c-2 -7 -29 -103 -59 -213 -31 -110 -60 -215 -65 -232
l-10 -33 225 0 c210 0 225 -1 220 -17 -7 -24 -23 -114 -31 -172 -2 -14 -4 -26
-5 -26 -1 0 -3 -11 -6 -25 -2 -14 -9 -47 -14 -75 -9 -49 -13 -72 -26 -150 -3
-22 -8 -43 -9 -46 -2 -3 -7 -28 -10 -55 -4 -27 -8 -57 -11 -66 -6 -22 -13 -56
-19 -93 -2 -16 -7 -41 -9 -55 -11 -53 -16 -76 -22 -120 -3 -24 -8 -48 -10 -52
-2 -3 -7 -28 -10 -54 -3 -27 -7 -51 -9 -54 -2 -3 -6 -26 -10 -50 -3 -25 -10
-60 -15 -77 l-8 -33 71 -1 c40 0 189 0 332 0 l261 1 16 -33 c9 -17 29 -63 44
-102 14 -38 33 -86 41 -105 8 -19 19 -44 23 -55 44 -106 50 -114 72 -119 19
-4 83 -13 158 -22 26 -3 114 -14 145 -19 17 -3 46 -7 65 -10 19 -2 46 -7 60
-9 14 -3 48 -7 75 -11 50 -6 83 -10 140 -20 17 -3 50 -7 75 -10 46 -6 93 -12
145 -20 17 -3 46 -7 65 -10 19 -2 45 -7 57 -9 12 -3 46 -7 75 -10 29 -4 64 -8
78 -10 14 -2 46 -7 71 -10 25 -4 59 -9 75 -12 16 -3 43 -7 59 -9 73 -8 133
-16 156 -20 13 -3 44 -7 69 -10 25 -3 56 -8 70 -10 14 -3 45 -8 70 -11 25 -3
56 -8 70 -10 14 -2 43 -6 65 -8 22 -3 54 -7 70 -10 17 -3 53 -8 80 -11 28 -3
61 -8 75 -10 14 -3 45 -7 70 -10 25 -3 54 -8 66 -10 11 -3 43 -7 70 -10 27 -3
60 -8 74 -10 14 -2 42 -7 63 -10 88 -12 109 -15 142 -21 l35 -5 -2 1003 -3
1002 -30 2 c-16 1 -30 2 -30 3 0 1 -13 4 -30 5 -37 4 -113 15 -140 20 -11 2
-47 7 -80 10 -33 4 -73 10 -90 12 -35 6 -75 12 -130 18 -22 3 -53 7 -70 10
-16 3 -52 8 -80 11 -27 3 -63 8 -80 11 -35 6 -141 21 -205 29 -25 3 -56 7 -70
10 -87 13 -109 16 -140 20 -39 5 -98 13 -148 20 -18 3 -54 7 -80 10 -26 3 -54
8 -62 10 -13 4 -47 8 -155 20 -16 2 -30 4 -30 5 0 2 -13 4 -95 14 -30 4 -62 9
-70 11 -8 2 -40 7 -70 10 -30 3 -68 8 -85 11 -30 5 -44 7 -140 18 -27 4 -63 8
-80 11 -16 3 -48 7 -70 10 -22 3 -49 7 -60 10 -11 2 -42 7 -70 10 -53 6 -89
10 -145 19 -35 5 -57 8 -155 21 -27 4 -61 9 -75 11 -43 7 -137 20 -215 29 -22
3 -56 8 -75 11 -19 4 -44 8 -55 9 -11 1 -42 5 -70 9 -49 8 -71 11 -150 21 -22
3 -50 7 -62 9 -70 14 -134 16 -138 4z"/>
<path d="M4 2531 c-2 -2 -4 -453 -4 -1000 l0 -997 1728 1 c950 0 1732 3 1738
7 7 4 14 18 17 30 2 13 39 133 81 268 43 135 78 250 80 255 17 63 31 109 46
155 33 96 80 255 80 270 0 13 -33 15 -215 14 -118 0 -215 3 -215 7 0 7 80 189
153 349 11 25 21 50 23 55 2 9 48 111 96 212 11 23 20 46 20 50 0 4 8 24 18
43 10 19 19 38 19 42 1 4 26 59 56 123 33 70 50 115 42 116 -37 4 -3759 3
-3763 0z"/>
</g>
</svg>
